ISO-10303-21;
HEADER;
FILE_DESCRIPTION (( 'STEP AP214' ),
    '1' );
FILE_NAME ('152AC.STEP',
    '2024-04-16T03:04:04',
    ( 'LENOVO' ),
    ( '' ),
    'SwSTEP 2.0',
    'SolidWorks 2021',
    '' );
FILE_SCHEMA (( 'AUTOMOTIVE_DESIGN' ));
ENDSEC;

DATA;
#1 = CARTESIAN_POINT ( 'NONE',  ( -0.5000000000000000000, 0.2599999999999999534, 0.2999999999999999889 ) ) ;
#2 = CARTESIAN_POINT ( 'NONE',  ( -0.5000000000000000000, 0.000000000000000000, -0.2999999999999999889 ) ) ;
#3 = CARTESIAN_POINT ( 'NONE',  ( -0.3602533450326459996, 0.2599999999999999534, -0.2999999999999999889 ) ) ;
#4 = DIRECTION ( 'NONE',  ( 0.000000000000000000, -1.000000000000000000, 0.000000000000000000 ) ) ;
#5 = AXIS2_PLACEMENT_3D ( 'NONE', #557, #599, #300 ) ;
#6 = ADVANCED_FACE ( 'NONE', ( #111 ), #318, .T. ) ;
#7 = DIRECTION ( 'NONE',  ( 0.000000000000000000, 1.000000000000000000, 0.000000000000000000 ) ) ;
#8 =( NAMED_UNIT ( * ) PLANE_ANGLE_UNIT ( ) SI_UNIT ( $, .RADIAN. ) );
#9 = EDGE_CURVE ( 'NONE', #692, #698, #684, .T. ) ;
#10 = FILL_AREA_STYLE ('',( #330 ) ) ;
#11 = PLANE ( 'NONE',  #420 ) ;
#12 = CARTESIAN_POINT ( 'NONE',  ( -0.2000000000000000111, -0.05000000000000000278, 0.2500000000000000000 ) ) ;
#13 = CARTESIAN_POINT ( 'NONE',  ( 0.5000000000000000000, 0.2599999999999999534, 0.2999999999999999889 ) ) ;
#14 = CARTESIAN_POINT ( 'NONE',  ( 0.4500000000000000111, -0.05000000000000000278, -0.2500000000000000000 ) ) ;
#15 = ORIENTED_EDGE ( 'NONE', *, *, #250, .F. ) ;
#16 = ORIENTED_EDGE ( 'NONE', *, *, #148, .F. ) ;
#17 = PLANE ( 'NONE',  #263 ) ;
#18 = PLANE ( 'NONE',  #287 ) ;
#19 = CARTESIAN_POINT ( 'NONE',  ( 0.000000000000000000, 0.000000000000000000, 0.000000000000000000 ) ) ;
#20 = VERTEX_POINT ( 'NONE', #203 ) ;
#21 = ORIENTED_EDGE ( 'NONE', *, *, #225, .T. ) ;
#22 = ORIENTED_EDGE ( 'NONE', *, *, #707, .F. ) ;
#23 = CARTESIAN_POINT ( 'NONE',  ( -0.5000000000000000000, 0.2599999999999999534, 0.2999999999999999889 ) ) ;
#24 = PLANE ( 'NONE',  #605 ) ;
#25 = ORIENTED_EDGE ( 'NONE', *, *, #301, .T. ) ;
#26 = DIRECTION ( 'NONE',  ( 1.000000000000000000, 0.000000000000000000, 0.000000000000000000 ) ) ;
#27 = MECHANICAL_DESIGN_GEOMETRIC_PRESENTATION_REPRESENTATION (  '', ( #594 ), #845 ) ;
#28 = CARTESIAN_POINT ( 'NONE',  ( 0.000000000000000000, 0.2599999999999999534, 0.000000000000000000 ) ) ;
#29 = ORIENTED_EDGE ( 'NONE', *, *, #675, .T. ) ;
#30 = CARTESIAN_POINT ( 'NONE',  ( 0.000000000000000000, 0.05000000000000000278, 0.000000000000000000 ) ) ;
#31 = CARTESIAN_POINT ( 'NONE',  ( -0.3602533450326459996, 0.2599999999999999534, 0.2999999999999999889 ) ) ;
#32 = EDGE_CURVE ( 'NONE', #100, #75, #405, .T. ) ;
#33 = DIRECTION ( 'NONE',  ( 1.000000000000000000, 0.000000000000000000, 0.000000000000000000 ) ) ;
#34 = ORIENTED_EDGE ( 'NONE', *, *, #505, .T. ) ;
#35 = EDGE_LOOP ( 'NONE', ( #365, #401, #371, #659 ) ) ;
#36 = CARTESIAN_POINT ( 'NONE',  ( -0.2000000000000000111, 0.000000000000000000, 0.2500000000000000000 ) ) ;
#37 = CARTESIAN_POINT ( 'NONE',  ( 0.000000000000000000, -0.05000000000000000278, 0.000000000000000000 ) ) ;
#38 = CARTESIAN_POINT ( 'NONE',  ( -0.4300838274069463951, 0.2399999999999999911, 0.3000000000000000999 ) ) ;
#39 = AXIS2_PLACEMENT_3D ( 'NONE', #30, #355, #722 ) ;
#40 = DIRECTION ( 'NONE',  ( 0.000000000000000000, 0.000000000000000000, 1.000000000000000000 ) ) ;
#41 = DIRECTION ( 'NONE',  ( 0.000000000000000000, 1.000000000000000000, 0.000000000000000000 ) ) ;
#42 = ORIENTED_EDGE ( 'NONE', *, *, #628, .T. ) ;
#43 = ADVANCED_BREP_SHAPE_REPRESENTATION ( '', ( #295, #850, #699, #305, #720 ), #516 ) ;
#44 = CARTESIAN_POINT ( 'NONE',  ( 0.5000000000000000000, 0.2599999999999999534, 0.2999999999999999889 ) ) ;
#45 = ORIENTED_EDGE ( 'NONE', *, *, #242, .F. ) ;
#46 = DIRECTION ( 'NONE',  ( 1.084202172485503818E-16, 0.000000000000000000, 1.000000000000000000 ) ) ;
#47 = DIRECTION ( 'NONE',  ( -1.000000000000000000, -0.000000000000000000, 0.000000000000000000 ) ) ;
#48 = STYLED_ITEM ( 'NONE', ( #520 ), #699 ) ;
#49 = MECHANICAL_DESIGN_GEOMETRIC_PRESENTATION_REPRESENTATION (  '', ( #794 ), #374 ) ;
#50 = ORIENTED_EDGE ( 'NONE', *, *, #561, .T. ) ;
#51 = CARTESIAN_POINT ( 'NONE',  ( 0.4500000000000000111, -0.05000000000000000278, 0.2500000000000000000 ) ) ;
#52 = UNCERTAINTY_MEASURE_WITH_UNIT (LENGTH_MEASURE( 1.000000000000000082E-05 ), #566, 'distance_accuracy_value', 'NONE');
#53 = CARTESIAN_POINT ( 'NONE',  ( -0.4500000000000000111, 0.000000000000000000, 0.2500000000000000000 ) ) ;
#54 = CARTESIAN_POINT ( 'NONE',  ( 0.05000000000000000278, -0.05000000000000000278, 0.2500000000000000000 ) ) ;
#55 = CARTESIAN_POINT ( 'NONE',  ( 0.000000000000000000, 0.2399999999999999911, 0.000000000000000000 ) ) ;
#56 = ADVANCED_FACE ( 'NONE', ( #155 ), #805, .F. ) ;
#57 = ORIENTED_EDGE ( 'NONE', *, *, #746, .T. ) ;
#58 = EDGE_LOOP ( 'NONE', ( #608, #404, #655, #103 ) ) ;
#59 = AXIS2_PLACEMENT_3D ( 'NONE', #799, #409, #288 ) ;
#60 = DIRECTION ( 'NONE',  ( 0.000000000000000000, 1.000000000000000000, 0.000000000000000000 ) ) ;
#61 = ORIENTED_EDGE ( 'NONE', *, *, #517, .T. ) ;
#62 = DIRECTION ( 'NONE',  ( 0.000000000000000000, 1.000000000000000000, 0.000000000000000000 ) ) ;
#63 = CLOSED_SHELL ( 'NONE', ( #588, #554, #690, #613, #235, #451 ) ) ;
#64 = VERTEX_POINT ( 'NONE', #477 ) ;
#65 = ORIENTED_EDGE ( 'NONE', *, *, #780, .F. ) ;
#66 = ADVANCED_FACE ( 'NONE', ( #165 ), #635, .F. ) ;
#67 = ORIENTED_EDGE ( 'NONE', *, *, #148, .T. ) ;
#68 = DIRECTION ( 'NONE',  ( 0.000000000000000000, 0.000000000000000000, -1.000000000000000000 ) ) ;
#69 = VERTEX_POINT ( 'NONE', #53 ) ;
#70 = PLANE ( 'NONE',  #345 ) ;
#71 = EDGE_CURVE ( 'NONE', #118, #136, #752, .T. ) ;
#72 = ORIENTED_EDGE ( 'NONE', *, *, #369, .T. ) ;
#73 = ORIENTED_EDGE ( 'NONE', *, *, #749, .F. ) ;
#74 = EDGE_CURVE ( 'NONE', #379, #634, #160, .T. ) ;
#75 = VERTEX_POINT ( 'NONE', #338 ) ;
#76 = ORIENTED_EDGE ( 'NONE', *, *, #225, .F. ) ;
#77 = CARTESIAN_POINT ( 'NONE',  ( -0.2000000000000000111, -0.05000000000000000278, 0.2500000000000000000 ) ) ;
#78 = CARTESIAN_POINT ( 'NONE',  ( -0.3602533450326459996, 0.2590000000000000080, -0.2999999999999999889 ) ) ;
#79 = CONTEXT_DEPENDENT_SHAPE_REPRESENTATION ( #617, #575 ) ;
#80 = SHAPE_REPRESENTATION ( '152AC_152AC', ( #720 ), #516 ) ;
#81 = CARTESIAN_POINT ( 'NONE',  ( 0.000000000000000000, 0.000000000000000000, 0.000000000000000000 ) ) ;
#82 = EDGE_LOOP ( 'NONE', ( #101, #362, #643, #407 ) ) ;
#83 = EDGE_LOOP ( 'NONE', ( #597, #430, #93, #317 ) ) ;
#84 = DIRECTION ( 'NONE',  ( -1.000000000000000000, 0.000000000000000000, 0.000000000000000000 ) ) ;
#85 = VERTEX_POINT ( 'NONE', #239 ) ;
#86 = EDGE_CURVE ( 'NONE', #596, #118, #147, .T. ) ;
#87 = ORIENTED_EDGE ( 'NONE', *, *, #417, .T. ) ;
#88 = ORIENTED_EDGE ( 'NONE', *, *, #250, .T. ) ;
#89 = AXIS2_PLACEMENT_3D ( 'NONE', #261, #453, #687 ) ;
#90 = EDGE_CURVE ( 'NONE', #377, #711, #436, .T. ) ;
#91 = VERTEX_POINT ( 'NONE', #512 ) ;
#92 = ORIENTED_EDGE ( 'NONE', *, *, #336, .T. ) ;
#93 = ORIENTED_EDGE ( 'NONE', *, *, #843, .F. ) ;
#94 = EDGE_LOOP ( 'NONE', ( #586, #119, #636, #358 ) ) ;
#95 = ORIENTED_EDGE ( 'NONE', *, *, #628, .F. ) ;
#96 = CARTESIAN_POINT ( 'NONE',  ( -0.4300838274069465061, 0.2399999999999999356, -0.2999999999999999889 ) ) ;
#97 = EDGE_LOOP ( 'NONE', ( #395, #341, #50, #340 ) ) ;
#98 = CARTESIAN_POINT ( 'NONE',  ( -0.3602533450326459996, 0.2399999999999999911, -0.2999999999999999889 ) ) ;
#99 = VERTEX_POINT ( 'NONE', #652 ) ;
#100 = VERTEX_POINT ( 'NONE', #558 ) ;
#101 = ORIENTED_EDGE ( 'NONE', *, *, #569, .T. ) ;
#102 = ADVANCED_FACE ( 'NONE', ( #725 ), #693, .F. ) ;
#103 = ORIENTED_EDGE ( 'NONE', *, *, #619, .T. ) ;
#104 = ORIENTED_EDGE ( 'NONE', *, *, #843, .T. ) ;
#105 = VERTEX_POINT ( 'NONE', #842 ) ;
#106 = EDGE_LOOP ( 'NONE', ( #359, #712, #314, #129 ) ) ;
#107 = ORIENTED_EDGE ( 'NONE', *, *, #237, .T. ) ;
#108 = VERTEX_POINT ( 'NONE', #13 ) ;
#109 =( LENGTH_UNIT ( ) NAMED_UNIT ( * ) SI_UNIT ( .MILLI., .METRE. ) );
#110 = ORIENTED_EDGE ( 'NONE', *, *, #198, .T. ) ;
#111 = FACE_OUTER_BOUND ( 'NONE', #691, .T. ) ;
#112 = AXIS2_PLACEMENT_3D ( 'NONE', #296, #498, #685 ) ;
#113 = VECTOR ( 'NONE', #367, 1000.000000000000000 ) ;
#114 = CARTESIAN_POINT ( 'NONE',  ( -0.2000000000000000111, 0.000000000000000000, -0.2500000000000000000 ) ) ;
#115 = ORIENTED_EDGE ( 'NONE', *, *, #507, .T. ) ;
#116 = ORIENTED_EDGE ( 'NONE', *, *, #561, .F. ) ;
#117 = DIRECTION ( 'NONE',  ( 0.000000000000000000, -1.000000000000000000, 0.000000000000000000 ) ) ;
#118 = VERTEX_POINT ( 'NONE', #670 ) ;
#119 = ORIENTED_EDGE ( 'NONE', *, *, #86, .F. ) ;
#120 = ORIENTED_EDGE ( 'NONE', *, *, #517, .F. ) ;
#121 = CARTESIAN_POINT ( 'NONE',  ( -0.3602533450326459996, -0.3640499120673949540, 0.2999999999999999889 ) ) ;
#122 = ORIENTED_EDGE ( 'NONE', *, *, #515, .F. ) ;
#123 = DIRECTION ( 'NONE',  ( 1.000000000000000000, 0.000000000000000000, -1.084202172485503818E-16 ) ) ;
#124 =( NAMED_UNIT ( * ) SI_UNIT ( $, .STERADIAN. ) SOLID_ANGLE_UNIT ( ) );
#125 = VERTEX_POINT ( 'NONE', #151 ) ;
#126 = PLANE ( 'NONE',  #356 ) ;
#127 = PRODUCT_RELATED_PRODUCT_CATEGORY ( 'part', '', ( #681 ) ) ;
#128 = ORIENTED_EDGE ( 'NONE', *, *, #528, .F. ) ;
#129 = ORIENTED_EDGE ( 'NONE', *, *, #515, .T. ) ;
#130 = CARTESIAN_POINT ( 'NONE',  ( 0.4500000000000000111, 0.000000000000000000, 0.2500000000000000000 ) ) ;
#131 = VERTEX_POINT ( 'NONE', #832 ) ;
#132 =( NAMED_UNIT ( * ) PLANE_ANGLE_UNIT ( ) SI_UNIT ( $, .RADIAN. ) );
#133 = ORIENTED_EDGE ( 'NONE', *, *, #237, .F. ) ;
#134 = DIRECTION ( 'NONE',  ( 0.000000000000000000, 0.000000000000000000, -1.000000000000000000 ) ) ;
#135 = ORIENTED_EDGE ( 'NONE', *, *, #853, .F. ) ;
#136 = VERTEX_POINT ( 'NONE', #173 ) ;
#137 = DIRECTION ( 'NONE',  ( 0.000000000000000000, 0.000000000000000000, 1.000000000000000000 ) ) ;
#138 = DIRECTION ( 'NONE',  ( 0.000000000000000000, 0.000000000000000000, 1.000000000000000000 ) ) ;
#139 = EDGE_LOOP ( 'NONE', ( #587, #16, #713, #664 ) ) ;
#140 = AXIS2_PLACEMENT_3D ( 'NONE', #166, #332, #592 ) ;
#141 = ORIENTED_EDGE ( 'NONE', *, *, #629, .T. ) ;
#142 =( LENGTH_UNIT ( ) NAMED_UNIT ( * ) SI_UNIT ( .MILLI., .METRE. ) );
#143 = EDGE_LOOP ( 'NONE', ( #418, #766, #433, #45 ) ) ;
#144 = ORIENTED_EDGE ( 'NONE', *, *, #256, .T. ) ;
#145 = ORIENTED_EDGE ( 'NONE', *, *, #369, .F. ) ;
#146 = FACE_OUTER_BOUND ( 'NONE', #656, .T. ) ;
#147 = LINE ( 'NONE', #179, #181 ) ;
#148 = EDGE_CURVE ( 'NONE', #600, #69, #721, .T. ) ;
#149 = FACE_OUTER_BOUND ( 'NONE', #106, .T. ) ;
#150 = ADVANCED_FACE ( 'NONE', ( #149 ), #491, .F. ) ;
#151 = CARTESIAN_POINT ( 'NONE',  ( -0.3602533450326459996, 0.2399999999999999911, -0.2999999999999999889 ) ) ;
#152 = DIRECTION ( 'NONE',  ( -1.000000000000000000, 0.000000000000000000, -0.000000000000000000 ) ) ;
#153 =( GEOMETRIC_REPRESENTATION_CONTEXT ( 3 ) GLOBAL_UNCERTAINTY_ASSIGNED_CONTEXT ( ( #612 ) ) GLOBAL_UNIT_ASSIGNED_CONTEXT ( ( #109, #215, #450 ) ) REPRESENTATION_CONTEXT ( 'NONE', 'WORKASPACE' ) );
#154 = EDGE_CURVE ( 'NONE', #426, #415, #748, .T. ) ;
#155 = FACE_OUTER_BOUND ( 'NONE', #83, .T. ) ;
#156 = VECTOR ( 'NONE', #795, 1000.000000000000000 ) ;
#157 = LINE ( 'NONE', #223, #158 ) ;
#158 = VECTOR ( 'NONE', #465, 1000.000000000000000 ) ;
#159 = CARTESIAN_POINT ( 'NONE',  ( 0.4500000000000000111, -0.05000000000000000278, -0.2500000000000000000 ) ) ;
#160 = LINE ( 'NONE', #159, #443 ) ;
#161 = ADVANCED_FACE ( 'NONE', ( #146 ), #18, .F. ) ;
#162 = ORIENTED_EDGE ( 'NONE', *, *, #820, .F. ) ;
#163 = FACE_OUTER_BOUND ( 'NONE', #97, .T. ) ;
#164 = FILL_AREA_STYLE ('',( #197 ) ) ;
#165 = FACE_OUTER_BOUND ( 'NONE', #658, .T. ) ;
#166 = CARTESIAN_POINT ( 'NONE',  ( 0.000000000000000000, 0.000000000000000000, 0.000000000000000000 ) ) ;
#167 =( GEOMETRIC_REPRESENTATION_CONTEXT ( 3 ) GLOBAL_UNCERTAINTY_ASSIGNED_CONTEXT ( ( #373 ) ) GLOBAL_UNIT_ASSIGNED_CONTEXT ( ( #142, #384, #243 ) ) REPRESENTATION_CONTEXT ( 'NONE', 'WORKASPACE' ) );
#168 = EDGE_CURVE ( 'NONE', #674, #600, #467, .T. ) ;
#169 = LINE ( 'NONE', #545, #456 ) ;
#170 = DIRECTION ( 'NONE',  ( -0.000000000000000000, 1.000000000000000000, 0.000000000000000000 ) ) ;
#171 = LINE ( 'NONE', #285, #458 ) ;
#172 = VECTOR ( 'NONE', #117, 1000.000000000000000 ) ;
#173 = CARTESIAN_POINT ( 'NONE',  ( 0.05000000000000000278, 0.000000000000000000, -0.2500000000000000000 ) ) ;
#174 = DIRECTION ( 'NONE',  ( 0.000000000000000000, 0.000000000000000000, -1.000000000000000000 ) ) ;
#175 = VECTOR ( 'NONE', #62, 1000.000000000000000 ) ;
#176 = FACE_OUTER_BOUND ( 'NONE', #630, .T. ) ;
#177 = VECTOR ( 'NONE', #701, 1000.000000000000000 ) ;
#178 = AXIS2_PLACEMENT_3D ( 'NONE', #283, #484, #547 ) ;
#179 = CARTESIAN_POINT ( 'NONE',  ( 0.05000000000000000278, -0.05000000000000000278, 0.2500000000000000000 ) ) ;
#180 = SURFACE_STYLE_USAGE ( .BOTH. , #513 ) ;
#181 = VECTOR ( 'NONE', #429, 1000.000000000000000 ) ;
#182 = LINE ( 'NONE', #648, #495 ) ;
#183 = CARTESIAN_POINT ( 'NONE',  ( 0.000000000000000000, 0.2599999999999999534, 0.000000000000000000 ) ) ;
#184 = FILL_AREA_STYLE ('',( #642 ) ) ;
#185 = VECTOR ( 'NONE', #353, 1000.000000000000000 ) ;
#186 = CARTESIAN_POINT ( 'NONE',  ( -0.4500000000000000111, -0.05000000000000000278, 0.2500000000000000000 ) ) ;
#187 = VECTOR ( 'NONE', #728, 1000.000000000000000 ) ;
#188 = AXIS2_PLACEMENT_3D ( 'NONE', #457, #46, #818 ) ;
#189 = VECTOR ( 'NONE', #859, 1000.000000000000000 ) ;
#190 = LINE ( 'NONE', #577, #189 ) ;
#191 = APPLICATION_CONTEXT ( 'automotive_design' ) ;
#192 = FACE_OUTER_BOUND ( 'NONE', #428, .T. ) ;
#193 = LINE ( 'NONE', #284, #773 ) ;
#194 = LINE ( 'NONE', #310, #783 ) ;
#195 = VECTOR ( 'NONE', #564, 1000.000000000000000 ) ;
#196 =( NAMED_UNIT ( * ) PLANE_ANGLE_UNIT ( ) SI_UNIT ( $, .RADIAN. ) );
#197 = FILL_AREA_STYLE_COLOUR ( '', #466 ) ;
#198 = EDGE_CURVE ( 'NONE', #20, #419, #745, .T. ) ;
#199 = FACE_OUTER_BOUND ( 'NONE', #650, .T. ) ;
#200 = AXIS2_PLACEMENT_3D ( 'NONE', #121, #460, #311 ) ;
#201 = LINE ( 'NONE', #607, #769 ) ;
#202 = EDGE_CURVE ( 'NONE', #410, #596, #447, .T. ) ;
#203 = CARTESIAN_POINT ( 'NONE',  ( -0.5000000000000000000, 0.2599999999999999534, -0.2999999999999999889 ) ) ;
#204 = VECTOR ( 'NONE', #742, 1000.000000000000000 ) ;
#205 = CARTESIAN_POINT ( 'NONE',  ( -0.4300838274069465061, -0.3640499120673949540, 0.2999999999999999889 ) ) ;
#206 = LINE ( 'NONE', #640, #489 ) ;
#207 = APPLICATION_CONTEXT ( 'automotive_design' ) ;
#208 = ADVANCED_FACE ( 'NONE', ( #473 ), #271, .F. ) ;
#209 = LINE ( 'NONE', #351, #789 ) ;
#210 = CARTESIAN_POINT ( 'NONE',  ( 0.05000000000000000278, -0.05000000000000000278, -0.2500000000000000000 ) ) ;
#211 = LINE ( 'NONE', #806, #508 ) ;
#212 = CARTESIAN_POINT ( 'NONE',  ( -0.5000000000000000000, 0.2599999999999999534, 0.2999999999999999889 ) ) ;
#213 = DIRECTION ( 'NONE',  ( 1.000000000000000000, 0.000000000000000000, 0.000000000000000000 ) ) ;
#214 = CARTESIAN_POINT ( 'NONE',  ( 0.5000000000000000000, 0.2599999999999999534, 0.2999999999999999889 ) ) ;
#215 =( NAMED_UNIT ( * ) PLANE_ANGLE_UNIT ( ) SI_UNIT ( $, .RADIAN. ) );
#216 = AXIS2_PLACEMENT_3D ( 'NONE', #478, #828, #152 ) ;
#217 = EDGE_CURVE ( 'NONE', #100, #377, #727, .T. ) ;
#218 = DIRECTION ( 'NONE',  ( 1.000000000000000000, 0.000000000000000000, 0.000000000000000000 ) ) ;
#219 = LINE ( 'NONE', #282, #760 ) ;
#220 = CARTESIAN_POINT ( 'NONE',  ( -0.2000000000000000111, -0.05000000000000000278, -0.2500000000000000000 ) ) ;
#221 = DIRECTION ( 'NONE',  ( 0.000000000000000000, 0.000000000000000000, -1.000000000000000000 ) ) ;
#222 = FACE_OUTER_BOUND ( 'NONE', #94, .T. ) ;
#223 = CARTESIAN_POINT ( 'NONE',  ( 0.5000000000000000000, 0.000000000000000000, 0.2999999999999999889 ) ) ;
#224 = LINE ( 'NONE', #616, #808 ) ;
#225 = EDGE_CURVE ( 'NONE', #360, #99, #470, .T. ) ;
#226 = PLANE ( 'NONE',  #59 ) ;
#227 = LINE ( 'NONE', #270, #797 ) ;
#228 = EDGE_CURVE ( 'NONE', #419, #589, #448, .T. ) ;
#229 = LINE ( 'NONE', #814, #525 ) ;
#230 = MECHANICAL_DESIGN_GEOMETRIC_PRESENTATION_REPRESENTATION (  '', ( #48 ), #854 ) ;
#231 = LINE ( 'NONE', #424, #801 ) ;
#232 = LINE ( 'NONE', #672, #511 ) ;
#233 = DIRECTION ( 'NONE',  ( 0.000000000000000000, 1.000000000000000000, 0.000000000000000000 ) ) ;
#234 = VECTOR ( 'NONE', #306, 1000.000000000000000 ) ;
#235 = ADVANCED_FACE ( 'NONE', ( #452 ), #24, .T. ) ;
#236 = FACE_OUTER_BOUND ( 'NONE', #392, .T. ) ;
#237 = EDGE_CURVE ( 'NONE', #641, #372, #750, .T. ) ;
#238 = PRODUCT_DEFINITION_SHAPE ( 'NONE', 'NONE',  #291 ) ;
#239 = CARTESIAN_POINT ( 'NONE',  ( -0.4500000000000000111, 0.000000000000000000, -0.2500000000000000000 ) ) ;
#240 = LINE ( 'NONE', #500, #247 ) ;
#241 = DIRECTION ( 'NONE',  ( 1.000000000000000000, 0.000000000000000000, 0.000000000000000000 ) ) ;
#242 = EDGE_CURVE ( 'NONE', #589, #131, #157, .T. ) ;
#243 =( NAMED_UNIT ( * ) SI_UNIT ( $, .STERADIAN. ) SOLID_ANGLE_UNIT ( ) );
#244 = LINE ( 'NONE', #14, #807 ) ;
#245 = PRESENTATION_STYLE_ASSIGNMENT (( #294 ) ) ;
#246 = DIRECTION ( 'NONE',  ( -1.000000000000000000, 0.000000000000000000, 0.000000000000000000 ) ) ;
#247 = VECTOR ( 'NONE', #833, 1000.000000000000000 ) ;
#248 = CARTESIAN_POINT ( 'NONE',  ( 0.4500000000000000111, 0.000000000000000000, -0.2500000000000000000 ) ) ;
#249 = SURFACE_STYLE_FILL_AREA ( #10 ) ;
#250 = EDGE_CURVE ( 'NONE', #136, #368, #461, .T. ) ;
#251 = ADVANCED_FACE ( 'NONE', ( #176 ), #622, .F. ) ;
#252 = DIRECTION ( 'NONE',  ( 1.000000000000000000, 0.000000000000000000, 0.000000000000000000 ) ) ;
#253 = FACE_OUTER_BOUND ( 'NONE', #320, .T. ) ;
#254 = PRESENTATION_LAYER_ASSIGNMENT (  '', '', ( #782 ) ) ;
#255 = CARTESIAN_POINT ( 'NONE',  ( -0.3602533450326459996, -0.3640499120673949540, 0.2999999999999999889 ) ) ;
#256 = EDGE_CURVE ( 'NONE', #91, #683, #753, .T. ) ;
#257 = VECTOR ( 'NONE', #221, 1000.000000000000000 ) ;
#258 = LINE ( 'NONE', #543, #804 ) ;
#259 = DIRECTION ( 'NONE',  ( -1.000000000000000000, 0.000000000000000000, 0.000000000000000000 ) ) ;
#260 =( NAMED_UNIT ( * ) SI_UNIT ( $, .STERADIAN. ) SOLID_ANGLE_UNIT ( ) );
#261 = CARTESIAN_POINT ( 'NONE',  ( -0.4300838274069465061, 0.2590000000000000080, -0.2999999999999999889 ) ) ;
#262 = DIRECTION ( 'NONE',  ( 1.000000000000000000, 0.000000000000000000, 0.000000000000000000 ) ) ;
#263 = AXIS2_PLACEMENT_3D ( 'NONE', #81, #860, #731 ) ;
#264 = DIRECTION ( 'NONE',  ( -0.000000000000000000, 1.000000000000000000, 0.000000000000000000 ) ) ;
#265 = DIRECTION ( 'NONE',  ( 1.000000000000000000, 0.000000000000000000, 0.000000000000000000 ) ) ;
#266 = LINE ( 'NONE', #709, #278 ) ;
#267 = COLOUR_RGB ( '',0.7921568627450980005, 0.8196078431372548767, 0.9333333333333333481 ) ;
#268 = CARTESIAN_POINT ( 'NONE',  ( -0.5000000000000000000, 0.2599999999999999534, -0.2999999999999999889 ) ) ;
#269 = APPLICATION_PROTOCOL_DEFINITION ( 'draft international standard', 'automotive_design', 1998, #207 ) ;
#270 = CARTESIAN_POINT ( 'NONE',  ( 0.5000000000000000000, 0.2599999999999999534, 0.2999999999999999889 ) ) ;
#271 = PLANE ( 'NONE',  #785 ) ;
#272 = SHAPE_REPRESENTATION_RELATIONSHIP ( 'NONE' , 'NONE' ,  #80, #43 ) ;
#273 = APPLICATION_CONTEXT ( 'automotive_design' ) ;
#274 = LINE ( 'NONE', #98, #837 ) ;
#275 = DIRECTION ( 'NONE',  ( 0.000000000000000000, 1.000000000000000000, 0.000000000000000000 ) ) ;
#276 = DIRECTION ( 'NONE',  ( -1.000000000000000000, 0.000000000000000000, 0.000000000000000000 ) ) ;
#277 = UNCERTAINTY_MEASURE_WITH_UNIT (LENGTH_MEASURE( 1.000000000000000082E-05 ), #509, 'distance_accuracy_value', 'NONE');
#278 = VECTOR ( 'NONE', #582, 1000.000000000000000 ) ;
#279 = PRESENTATION_LAYER_ASSIGNMENT (  '', '', ( #594 ) ) ;
#280 = DIRECTION ( 'NONE',  ( 1.000000000000000000, 0.000000000000000000, 0.000000000000000000 ) ) ;
#281 = DIRECTION ( 'NONE',  ( 1.000000000000000000, 0.000000000000000000, -0.000000000000000000 ) ) ;
#282 = CARTESIAN_POINT ( 'NONE',  ( -0.3602533450326459996, 0.2599999999999999534, -0.2999999999999999889 ) ) ;
#283 = CARTESIAN_POINT ( 'NONE',  ( -0.2000000000000000111, -0.05000000000000000278, -0.2500000000000000000 ) ) ;
#284 = CARTESIAN_POINT ( 'NONE',  ( -0.4300838274069465061, 0.2599999999999999534, -0.2999999999999999889 ) ) ;
#285 = CARTESIAN_POINT ( 'NONE',  ( -0.4300838274069465061, 0.2399999999999999911, 0.2999999999999999889 ) ) ;
#286 = MECHANICAL_DESIGN_GEOMETRIC_PRESENTATION_REPRESENTATION (  '', ( #782 ), #706 ) ;
#287 = AXIS2_PLACEMENT_3D ( 'NONE', #77, #827, #4 ) ;
#288 = DIRECTION ( 'NONE',  ( 0.000000000000000000, 0.000000000000000000, 1.000000000000000000 ) ) ;
#289 = CARTESIAN_POINT ( 'NONE',  ( -0.2000000000000000111, 0.000000000000000000, -0.2500000000000000000 ) ) ;
#290 = DIRECTION ( 'NONE',  ( 0.000000000000000000, 0.000000000000000000, -1.000000000000000000 ) ) ;
#291 = PRODUCT_DEFINITION ( 'UNKNOWN', '', #603, #297 ) ;
#292 = ADVANCED_FACE ( 'NONE', ( #163 ), #126, .T. ) ;
#293 = FILL_AREA_STYLE ('',( #755 ) ) ;
#294 = SURFACE_STYLE_USAGE ( .BOTH. , #559 ) ;
#295 = MANIFOLD_SOLID_BREP ( 'NONE', #390 ) ;
#296 = CARTESIAN_POINT ( 'NONE',  ( -0.4500000000000000111, -0.05000000000000000278, -0.2500000000000000000 ) ) ;
#297 = PRODUCT_DEFINITION_CONTEXT ( 'detailed design', #315, 'design' ) ;
#298 = EDGE_CURVE ( 'NONE', #99, #426, #169, .T. ) ;
#299 = AXIS2_PLACEMENT_3D ( 'NONE', #205, #581, #281 ) ;
#300 = DIRECTION ( 'NONE',  ( 0.000000000000000000, -0.000000000000000000, 1.000000000000000000 ) ) ;
#301 = EDGE_CURVE ( 'NONE', #679, #589, #744, .T. ) ;
#302 = DIRECTION ( 'NONE',  ( 1.000000000000000000, 0.000000000000000000, 0.000000000000000000 ) ) ;
#303 = EDGE_CURVE ( 'NONE', #641, #105, #171, .T. ) ;
#304 = DIRECTION ( 'NONE',  ( 1.000000000000000000, 0.000000000000000000, 0.000000000000000000 ) ) ;
#305 = MANIFOLD_SOLID_BREP ( 'Boss-Extrude1', #63 ) ;
#306 = DIRECTION ( 'NONE',  ( 0.000000000000000000, 0.000000000000000000, 1.000000000000000000 ) ) ;
#307 = DIRECTION ( 'NONE',  ( -1.084202172485503818E-16, 0.000000000000000000, -1.000000000000000000 ) ) ;
#308 = VERTEX_POINT ( 'NONE', #579 ) ;
#309 = DIRECTION ( 'NONE',  ( 0.000000000000000000, 0.000000000000000000, 1.000000000000000000 ) ) ;
#310 = CARTESIAN_POINT ( 'NONE',  ( 0.4500000000000000111, -0.05000000000000000278, -0.2500000000000000000 ) ) ;
#311 = DIRECTION ( 'NONE',  ( 0.000000000000000000, 0.000000000000000000, -1.000000000000000000 ) ) ;
#312 = ORIENTED_EDGE ( 'NONE', *, *, #336, .F. ) ;
#313 = DIRECTION ( 'NONE',  ( 0.000000000000000000, 0.000000000000000000, 1.000000000000000000 ) ) ;
#314 = ORIENTED_EDGE ( 'NONE', *, *, #298, .F. ) ;
#315 = APPLICATION_CONTEXT ( 'automotive_design' ) ;
#316 = DIRECTION ( 'NONE',  ( 0.000000000000000000, 0.000000000000000000, -1.000000000000000000 ) ) ;
#317 = ORIENTED_EDGE ( 'NONE', *, *, #86, .T. ) ;
#318 = PLANE ( 'NONE',  #646 ) ;
#319 = ORIENTED_EDGE ( 'NONE', *, *, #329, .F. ) ;
#320 = EDGE_LOOP ( 'NONE', ( #427, #57, #609, #654 ) ) ;
#321 = PRESENTATION_LAYER_ASSIGNMENT (  '', '', ( #421 ) ) ;
#322 = ORIENTED_EDGE ( 'NONE', *, *, #591, .F. ) ;
#323 = EDGE_LOOP ( 'NONE', ( #115, #381, #72, #626 ) ) ;
#324 = PLANE ( 'NONE',  #216 ) ;
#325 = EDGE_LOOP ( 'NONE', ( #393, #696, #590, #666 ) ) ;
#326 = ORIENTED_EDGE ( 'NONE', *, *, #303, .F. ) ;
#327 = DIRECTION ( 'NONE',  ( 0.000000000000000000, 0.000000000000000000, -1.000000000000000000 ) ) ;
#328 = PRESENTATION_LAYER_ASSIGNMENT (  '', '', ( #48 ) ) ;
#329 = EDGE_CURVE ( 'NONE', #634, #368, #194, .T. ) ;
#330 = FILL_AREA_STYLE_COLOUR ( '', #819 ) ;
#331 = ADVANCED_FACE ( 'NONE', ( #476 ), #857, .T. ) ;
#332 = DIRECTION ( 'NONE',  ( -0.000000000000000000, 1.000000000000000000, 0.000000000000000000 ) ) ;
#333 = DIRECTION ( 'NONE',  ( 0.000000000000000000, 1.000000000000000000, 0.000000000000000000 ) ) ;
#334 = ORIENTED_EDGE ( 'NONE', *, *, #853, .T. ) ;
#335 = PRODUCT_RELATED_PRODUCT_CATEGORY ( 'part', '', ( #792 ) ) ;
#336 = EDGE_CURVE ( 'NONE', #125, #669, #777, .T. ) ;
#337 = ORIENTED_EDGE ( 'NONE', *, *, #528, .T. ) ;
#338 = CARTESIAN_POINT ( 'NONE',  ( -0.4300838274069465061, 0.2599999999999999534, 0.2999999999999999889 ) ) ;
#339 = CARTESIAN_POINT ( 'NONE',  ( -0.2000000000000000111, -0.05000000000000000278, 0.2500000000000000000 ) ) ;
#340 = ORIENTED_EDGE ( 'NONE', *, *, #595, .T. ) ;
#341 = ORIENTED_EDGE ( 'NONE', *, *, #682, .T. ) ;
#342 = PLANE ( 'NONE',  #5 ) ;
#343 = EDGE_CURVE ( 'NONE', #415, #674, #201, .T. ) ;
#344 = EDGE_LOOP ( 'NONE', ( #413, #632, #733, #677 ) ) ;
#345 = AXIS2_PLACEMENT_3D ( 'NONE', #611, #522, #770 ) ;
#346 = DIRECTION ( 'NONE',  ( 0.000000000000000000, 1.000000000000000000, 0.000000000000000000 ) ) ;
#347 = ADVANCED_FACE ( 'NONE', ( #772 ), #350, .F. ) ;
#348 = CARTESIAN_POINT ( 'NONE',  ( -0.2000000000000000111, -0.05000000000000000278, 0.2500000000000000000 ) ) ;
#349 = CARTESIAN_POINT ( 'NONE',  ( 0.5000000000000000000, 0.2599999999999999534, -0.2999999999999999889 ) ) ;
#350 = PLANE ( 'NONE',  #549 ) ;
#351 = CARTESIAN_POINT ( 'NONE',  ( -0.5000000000000000000, 0.2599999999999999534, 0.2999999999999999889 ) ) ;
#352 = DIRECTION ( 'NONE',  ( 0.000000000000000000, 1.000000000000000000, 0.000000000000000000 ) ) ;
#353 = DIRECTION ( 'NONE',  ( 0.000000000000000000, 1.000000000000000000, 0.000000000000000000 ) ) ;
#354 = EDGE_LOOP ( 'NONE', ( #689, #361, #334, #337 ) ) ;
#355 = DIRECTION ( 'NONE',  ( 0.000000000000000000, 0.000000000000000000, 1.000000000000000000 ) ) ;
#356 = AXIS2_PLACEMENT_3D ( 'NONE', #825, #803, #304 ) ;
#357 = CARTESIAN_POINT ( 'NONE',  ( 0.5000000000000000000, 0.2599999999999999534, 0.2999999999999999889 ) ) ;
#358 = ORIENTED_EDGE ( 'NONE', *, *, #780, .T. ) ;
#359 = ORIENTED_EDGE ( 'NONE', *, *, #568, .T. ) ;
#360 = VERTEX_POINT ( 'NONE', #339 ) ;
#361 = ORIENTED_EDGE ( 'NONE', *, *, #544, .T. ) ;
#362 = ORIENTED_EDGE ( 'NONE', *, *, #217, .T. ) ;
#363 = SURFACE_STYLE_USAGE ( .BOTH. , #802 ) ;
#364 = ORIENTED_EDGE ( 'NONE', *, *, #74, .F. ) ;
#365 = ORIENTED_EDGE ( 'NONE', *, *, #217, .F. ) ;
#366 = ORIENTED_EDGE ( 'NONE', *, *, #707, .T. ) ;
#367 = DIRECTION ( 'NONE',  ( 0.000000000000000000, 0.000000000000000000, -1.000000000000000000 ) ) ;
#368 = VERTEX_POINT ( 'NONE', #771 ) ;
#369 = EDGE_CURVE ( 'NONE', #698, #711, #219, .T. ) ;
#370 = CARTESIAN_POINT ( 'NONE',  ( -0.3602533450326459996, 0.2599999999999999534, 0.2999999999999999889 ) ) ;
#371 = ORIENTED_EDGE ( 'NONE', *, *, #542, .F. ) ;
#372 = VERTEX_POINT ( 'NONE', #813 ) ;
#373 = UNCERTAINTY_MEASURE_WITH_UNIT (LENGTH_MEASURE( 1.000000000000000082E-05 ), #142, 'distance_accuracy_value', 'NONE');
#374 =( GEOMETRIC_REPRESENTATION_CONTEXT ( 3 ) GLOBAL_UNCERTAINTY_ASSIGNED_CONTEXT ( ( #475 ) ) GLOBAL_UNIT_ASSIGNED_CONTEXT ( ( #394, #8, #571 ) ) REPRESENTATION_CONTEXT ( 'NONE', 'WORKASPACE' ) );
#375 = APPLICATION_PROTOCOL_DEFINITION ( 'draft international standard', 'automotive_design', 1998, #191 ) ;
#376 = FILL_AREA_STYLE ('',( #541 ) ) ;
#377 = VERTEX_POINT ( 'NONE', #743 ) ;
#378 = EDGE_LOOP ( 'NONE', ( #87, #162, #412, #42 ) ) ;
#379 = VERTEX_POINT ( 'NONE', #399 ) ;
#380 = ORIENTED_EDGE ( 'NONE', *, *, #32, .F. ) ;
#381 = ORIENTED_EDGE ( 'NONE', *, *, #9, .T. ) ;
#382 =( LENGTH_UNIT ( ) NAMED_UNIT ( * ) SI_UNIT ( .MILLI., .METRE. ) );
#383 = ORIENTED_EDGE ( 'NONE', *, *, #820, .T. ) ;
#384 =( NAMED_UNIT ( * ) PLANE_ANGLE_UNIT ( ) SI_UNIT ( $, .RADIAN. ) );
#385 = VERTEX_POINT ( 'NONE', #863 ) ;
#386 = VERTEX_POINT ( 'NONE', #546 ) ;
#387 = DIRECTION ( 'NONE',  ( 0.000000000000000000, 1.000000000000000000, 0.000000000000000000 ) ) ;
#388 = CARTESIAN_POINT ( 'NONE',  ( 0.4500000000000000111, -0.05000000000000000278, -0.2500000000000000000 ) ) ;
#389 = PRODUCT_DEFINITION ( 'UNKNOWN', '', #499, #703 ) ;
#390 = CLOSED_SHELL ( 'NONE', ( #519, #6, #529, #570, #66, #56 ) ) ;
#391 = CARTESIAN_POINT ( 'NONE',  ( -0.4300838274069465061, 0.2399999999999999911, -0.2999999999999999889 ) ) ;
#392 = EDGE_LOOP ( 'NONE', ( #29, #312, #657, #762 ) ) ;
#393 = ORIENTED_EDGE ( 'NONE', *, *, #168, .T. ) ;
#394 =( LENGTH_UNIT ( ) NAMED_UNIT ( * ) SI_UNIT ( .MILLI., .METRE. ) );
#395 = ORIENTED_EDGE ( 'NONE', *, *, #573, .F. ) ;
#396 = ORIENTED_EDGE ( 'NONE', *, *, #550, .F. ) ;
#397 = EDGE_LOOP ( 'NONE', ( #673, #326, #107, #402, #25, #423, #95, #396 ) ) ;
#398 = ORIENTED_EDGE ( 'NONE', *, *, #329, .T. ) ;
#399 = CARTESIAN_POINT ( 'NONE',  ( 0.05000000000000000278, -0.05000000000000000278, -0.2500000000000000000 ) ) ;
#400 = DIRECTION ( 'NONE',  ( 0.000000000000000000, 0.000000000000000000, 1.000000000000000000 ) ) ;
#401 = ORIENTED_EDGE ( 'NONE', *, *, #32, .T. ) ;
#402 = ORIENTED_EDGE ( 'NONE', *, *, #595, .F. ) ;
#403 = EDGE_LOOP ( 'NONE', ( #73, #647, #145, #667 ) ) ;
#404 = ORIENTED_EDGE ( 'NONE', *, *, #343, .F. ) ;
#405 = LINE ( 'NONE', #468, #737 ) ;
#406 = EDGE_CURVE ( 'NONE', #360, #600, #763, .T. ) ;
#407 = ORIENTED_EDGE ( 'NONE', *, *, #615, .T. ) ;
#408 = AXIS2_PLACEMENT_3D ( 'NONE', #37, #862, #134 ) ;
#409 = DIRECTION ( 'NONE',  ( -1.000000000000000000, 0.000000000000000000, 0.000000000000000000 ) ) ;
#410 = VERTEX_POINT ( 'NONE', #583 ) ;
#411 = CLOSED_SHELL ( 'NONE', ( #787, #331, #161, #767, #567, #150 ) ) ;
#412 = ORIENTED_EDGE ( 'NONE', *, *, #695, .F. ) ;
#413 = ORIENTED_EDGE ( 'NONE', *, *, #675, .F. ) ;
#414 = DIRECTION ( 'NONE',  ( 0.000000000000000000, 0.000000000000000000, 1.000000000000000000 ) ) ;
#415 = VERTEX_POINT ( 'NONE', #220 ) ;
#416 = ORIENTED_EDGE ( 'NONE', *, *, #718, .T. ) ;
#417 = EDGE_CURVE ( 'NONE', #131, #425, #182, .T. ) ;
#418 = ORIENTED_EDGE ( 'NONE', *, *, #228, .F. ) ;
#419 = VERTEX_POINT ( 'NONE', #2 ) ;
#420 = AXIS2_PLACEMENT_3D ( 'NONE', #501, #662, #815 ) ;
#421 = STYLED_ITEM ( 'NONE', ( #503 ), #305 ) ;
#422 = ADVANCED_FACE ( 'NONE', ( #481 ), #726, .T. ) ;
#423 = ORIENTED_EDGE ( 'NONE', *, *, #242, .T. ) ;
#424 = CARTESIAN_POINT ( 'NONE',  ( 0.05000000000000000278, -0.05000000000000000278, -0.2500000000000000000 ) ) ;
#425 = VERTEX_POINT ( 'NONE', #614 ) ;
#426 = VERTEX_POINT ( 'NONE', #779 ) ;
#427 = ORIENTED_EDGE ( 'NONE', *, *, #615, .F. ) ;
#428 = EDGE_LOOP ( 'NONE', ( #601, #322, #120, #15 ) ) ;
#429 = DIRECTION ( 'NONE',  ( 0.000000000000000000, 1.000000000000000000, 0.000000000000000000 ) ) ;
#430 = ORIENTED_EDGE ( 'NONE', *, *, #718, .F. ) ;
#431 = ORIENTED_EDGE ( 'NONE', *, *, #406, .T. ) ;
#432 = PRESENTATION_LAYER_ASSIGNMENT (  '', '', ( #794 ) ) ;
#433 = ORIENTED_EDGE ( 'NONE', *, *, #417, .F. ) ;
#434 = ORIENTED_EDGE ( 'NONE', *, *, #256, .F. ) ;
#435 = PLANE ( 'NONE',  #556 ) ;
#436 = LINE ( 'NONE', #598, #437 ) ;
#437 = VECTOR ( 'NONE', #775, 1000.000000000000000 ) ;
#438 = VECTOR ( 'NONE', #259, 1000.000000000000000 ) ;
#439 = VECTOR ( 'NONE', #414, 1000.000000000000000 ) ;
#440 = CARTESIAN_POINT ( 'NONE',  ( 0.5000000000000000000, 0.2599999999999999534, 0.2999999999999999889 ) ) ;
#441 = DIRECTION ( 'NONE',  ( -1.000000000000000000, 0.000000000000000000, 1.084202172485503818E-16 ) ) ;
#442 = VECTOR ( 'NONE', #852, 1000.000000000000000 ) ;
#443 = VECTOR ( 'NONE', #252, 1000.000000000000000 ) ;
#444 = PRODUCT_DEFINITION_SHAPE ( 'NONE', 'NONE',  #389 ) ;
#445 = AXIS2_PLACEMENT_3D ( 'NONE', #55, #729, #620 ) ;
#446 = ADVANCED_FACE ( 'NONE', ( #199 ), #840, .F. ) ;
#447 = LINE ( 'NONE', #532, #442 ) ;
#448 = LINE ( 'NONE', #565, #177 ) ;
#449 = DIRECTION ( 'NONE',  ( 0.000000000000000000, -0.000000000000000000, 1.000000000000000000 ) ) ;
#450 =( NAMED_UNIT ( * ) SI_UNIT ( $, .STERADIAN. ) SOLID_ANGLE_UNIT ( ) );
#451 = ADVANCED_FACE ( 'NONE', ( #486 ), #829, .F. ) ;
#452 = FACE_OUTER_BOUND ( 'NONE', #323, .T. ) ;
#453 = DIRECTION ( 'NONE',  ( -1.000000000000000000, 0.000000000000000000, 0.000000000000000000 ) ) ;
#454 = COLOUR_RGB ( '',0.7921568627450980005, 0.8196078431372548767, 0.9333333333333333481 ) ;
#455 = EDGE_CURVE ( 'NONE', #85, #674, #788, .T. ) ;
#456 = VECTOR ( 'NONE', #316, 1000.000000000000000 ) ;
#457 = CARTESIAN_POINT ( 'NONE',  ( 0.5000000000000000000, 0.2599999999999999534, -0.2999999999999999889 ) ) ;
#458 = VECTOR ( 'NONE', #482, 1000.000000000000000 ) ;
#459 = VECTOR ( 'NONE', #537, 1000.000000000000000 ) ;
#460 = DIRECTION ( 'NONE',  ( 1.000000000000000000, -0.000000000000000000, 0.000000000000000000 ) ) ;
#461 = LINE ( 'NONE', #651, #735 ) ;
#462 = DIRECTION ( 'NONE',  ( -1.000000000000000000, 0.000000000000000000, 1.084202172485503818E-16 ) ) ;
#463 = PRODUCT_CONTEXT ( 'NONE', #207, 'mechanical' ) ;
#464 = PRESENTATION_STYLE_ASSIGNMENT (( #633 ) ) ;
#465 = DIRECTION ( 'NONE',  ( 1.000000000000000000, 0.000000000000000000, -1.084202172485503818E-16 ) ) ;
#466 = COLOUR_RGB ( '',1.000000000000000000, 1.000000000000000000, 1.000000000000000000 ) ;
#467 = LINE ( 'NONE', #289, #439 ) ;
#468 = CARTESIAN_POINT ( 'NONE',  ( -0.4300838274069465061, -0.3640499120673949540, 0.2999999999999999889 ) ) ;
#469 = PLANE ( 'NONE',  #299 ) ;
#470 = LINE ( 'NONE', #348, #730 ) ;
#471 = AXIS2_PLACEMENT_3D ( 'NONE', #19, #660, #174 ) ;
#472 = EDGE_CURVE ( 'NONE', #105, #308, #206, .T. ) ;
#473 = FACE_OUTER_BOUND ( 'NONE', #397, .T. ) ;
#474 = VECTOR ( 'NONE', #47, 1000.000000000000000 ) ;
#475 = UNCERTAINTY_MEASURE_WITH_UNIT (LENGTH_MEASURE( 1.000000000000000082E-05 ), #394, 'distance_accuracy_value', 'NONE');
#476 = FACE_OUTER_BOUND ( 'NONE', #606, .T. ) ;
#477 = CARTESIAN_POINT ( 'NONE',  ( 0.5000000000000000000, 0.2599999999999999534, -0.2999999999999999889 ) ) ;
#478 = CARTESIAN_POINT ( 'NONE',  ( -0.3602533450326459996, -0.3640499120673949540, -0.2999999999999999889 ) ) ;
#479 = LINE ( 'NONE', #649, #187 ) ;
#480 =( LENGTH_UNIT ( ) NAMED_UNIT ( * ) SI_UNIT ( .MILLI., .METRE. ) );
#481 = FACE_OUTER_BOUND ( 'NONE', #344, .T. ) ;
#482 = DIRECTION ( 'NONE',  ( 1.000000000000000000, 0.000000000000000000, 0.000000000000000000 ) ) ;
#483 = FACE_OUTER_BOUND ( 'NONE', #58, .T. ) ;
#484 = DIRECTION ( 'NONE',  ( 0.000000000000000000, 0.000000000000000000, 1.000000000000000000 ) ) ;
#485 = VECTOR ( 'NONE', #40, 1000.000000000000000 ) ;
#486 = FACE_OUTER_BOUND ( 'NONE', #82, .T. ) ;
#487 = DIRECTION ( 'NONE',  ( 0.000000000000000000, 0.000000000000000000, -1.000000000000000000 ) ) ;
#488 = ORIENTED_EDGE ( 'NONE', *, *, #228, .T. ) ;
#489 = VECTOR ( 'NONE', #740, 1000.000000000000000 ) ;
#490 = LINE ( 'NONE', #523, #496 ) ;
#491 = PLANE ( 'NONE',  #112 ) ;
#492 = CARTESIAN_POINT ( 'NONE',  ( -0.4300838274069465061, 0.2599999999999999534, -0.2999999999999999889 ) ) ;
#493 = VECTOR ( 'NONE', #26, 1000.000000000000000 ) ;
#494 = VECTOR ( 'NONE', #841, 1000.000000000000000 ) ;
#495 = VECTOR ( 'NONE', #822, 1000.000000000000000 ) ;
#496 = VECTOR ( 'NONE', #838, 1000.000000000000000 ) ;
#497 = ADVANCED_FACE ( 'NONE', ( #757 ), #844, .F. ) ;
#498 = DIRECTION ( 'NONE',  ( 1.000000000000000000, 0.000000000000000000, 0.000000000000000000 ) ) ;
#499 = PRODUCT_DEFINITION_FORMATION_WITH_SPECIFIED_SOURCE ( 'ANY', '', #681, .NOT_KNOWN. ) ;
#500 = CARTESIAN_POINT ( 'NONE',  ( 0.5000000000000000000, 0.2599999999999999534, -0.2999999999999999889 ) ) ;
#501 = CARTESIAN_POINT ( 'NONE',  ( -0.4300838274069465061, -0.3640499120673949540, -0.2999999999999999889 ) ) ;
#502 = VECTOR ( 'NONE', #213, 1000.000000000000000 ) ;
#503 = PRESENTATION_STYLE_ASSIGNMENT (( #734 ) ) ;
#504 = LINE ( 'NONE', #739, #474 ) ;
#505 = EDGE_CURVE ( 'NONE', #425, #419, #490, .T. ) ;
#506 = LINE ( 'NONE', #186, #185 ) ;
#507 = EDGE_CURVE ( 'NONE', #75, #692, #781, .T. ) ;
#508 = VECTOR ( 'NONE', #584, 1000.000000000000000 ) ;
#509 =( LENGTH_UNIT ( ) NAMED_UNIT ( * ) SI_UNIT ( .MILLI., .METRE. ) );
#510 = VECTOR ( 'NONE', #276, 1000.000000000000000 ) ;
#511 = VECTOR ( 'NONE', #233, 1000.000000000000000 ) ;
#512 = CARTESIAN_POINT ( 'NONE',  ( -0.4300838274069465061, 0.2399999999999999911, -0.2999999999999999889 ) ) ;
#513 = SURFACE_SIDE_STYLE ('',( #800 ) ) ;
#514 = VECTOR ( 'NONE', #548, 1000.000000000000000 ) ;
#515 = EDGE_CURVE ( 'NONE', #99, #69, #506, .T. ) ;
#516 =( GEOMETRIC_REPRESENTATION_CONTEXT ( 3 ) GLOBAL_UNCERTAINTY_ASSIGNED_CONTEXT ( ( #856 ) ) GLOBAL_UNIT_ASSIGNED_CONTEXT ( ( #480, #196, #124 ) ) REPRESENTATION_CONTEXT ( 'NONE', 'WORKASPACE' ) );
#517 = EDGE_CURVE ( 'NONE', #368, #385, #790, .T. ) ;
#518 = LINE ( 'NONE', #574, #530 ) ;
#519 = ADVANCED_FACE ( 'NONE', ( #192 ), #17, .F. ) ;
#520 = PRESENTATION_STYLE_ASSIGNMENT (( #180 ) ) ;
#521 = DIRECTION ( 'NONE',  ( -1.000000000000000000, 0.000000000000000000, 0.000000000000000000 ) ) ;
#522 = DIRECTION ( 'NONE',  ( -1.000000000000000000, 0.000000000000000000, 0.000000000000000000 ) ) ;
#523 = CARTESIAN_POINT ( 'NONE',  ( 0.5000000000000000000, 0.000000000000000000, -0.2999999999999999889 ) ) ;
#524 = VECTOR ( 'NONE', #761, 1000.000000000000000 ) ;
#525 = VECTOR ( 'NONE', #327, 1000.000000000000000 ) ;
#526 = FACE_OUTER_BOUND ( 'NONE', #139, .T. ) ;
#527 = FACE_OUTER_BOUND ( 'NONE', #325, .T. ) ;
#528 = EDGE_CURVE ( 'NONE', #91, #641, #758, .T. ) ;
#529 = ADVANCED_FACE ( 'NONE', ( #222 ), #551, .F. ) ;
#530 = VECTOR ( 'NONE', #138, 1000.000000000000000 ) ;
#531 = LINE ( 'NONE', #536, #234 ) ;
#532 = CARTESIAN_POINT ( 'NONE',  ( 0.4500000000000000111, -0.05000000000000000278, 0.2500000000000000000 ) ) ;
#533 = SURFACE_SIDE_STYLE ('',( #738 ) ) ;
#534 = VECTOR ( 'NONE', #290, 1000.000000000000000 ) ;
#535 = FACE_OUTER_BOUND ( 'NONE', #403, .T. ) ;
#536 = CARTESIAN_POINT ( 'NONE',  ( -0.2000000000000000111, -0.05000000000000000278, -0.2500000000000000000 ) ) ;
#537 = DIRECTION ( 'NONE',  ( 0.000000000000000000, 0.000000000000000000, -1.000000000000000000 ) ) ;
#538 = CARTESIAN_POINT ( 'NONE',  ( -0.4300838274069465061, 0.2590000000000000080, -0.2999999999999999889 ) ) ;
#539 = AXIS2_PLACEMENT_3D ( 'NONE', #809, #865, #265 ) ;
#540 = VECTOR ( 'NONE', #441, 1000.000000000000000 ) ;
#541 = FILL_AREA_STYLE_COLOUR ( '', #454 ) ;
#542 = EDGE_CURVE ( 'NONE', #711, #75, #193, .T. ) ;
#543 = CARTESIAN_POINT ( 'NONE',  ( 0.5000000000000000000, 0.2599999999999999534, 0.2999999999999999889 ) ) ;
#544 = EDGE_CURVE ( 'NONE', #105, #125, #190, .T. ) ;
#545 = CARTESIAN_POINT ( 'NONE',  ( -0.4500000000000000111, -0.05000000000000000278, -0.2500000000000000000 ) ) ;
#546 = CARTESIAN_POINT ( 'NONE',  ( -0.3602533450326459996, 0.2399999999999999356, -0.2999999999999999889 ) ) ;
#547 = DIRECTION ( 'NONE',  ( 1.000000000000000000, 0.000000000000000000, 0.000000000000000000 ) ) ;
#548 = DIRECTION ( 'NONE',  ( 0.000000000000000000, 1.000000000000000000, 0.000000000000000000 ) ) ;
#549 = AXIS2_PLACEMENT_3D ( 'NONE', #357, #246, #618 ) ;
#550 = EDGE_CURVE ( 'NONE', #308, #108, #778, .T. ) ;
#551 = PLANE ( 'NONE',  #572 ) ;
#552 = UNCERTAINTY_MEASURE_WITH_UNIT (LENGTH_MEASURE( 1.000000000000000082E-05 ), #382, 'distance_accuracy_value', 'NONE');
#553 = DIRECTION ( 'NONE',  ( 0.000000000000000000, 0.000000000000000000, 1.000000000000000000 ) ) ;
#554 = ADVANCED_FACE ( 'NONE', ( #765 ), #11, .T. ) ;
#555 = CARTESIAN_POINT ( 'NONE',  ( 0.05000000000000000278, 0.000000000000000000, -0.2500000000000000000 ) ) ;
#556 = AXIS2_PLACEMENT_3D ( 'NONE', #78, #241, #333 ) ;
#557 = CARTESIAN_POINT ( 'NONE',  ( 0.000000000000000000, 0.2399999999999999911, 0.000000000000000000 ) ) ;
#558 = CARTESIAN_POINT ( 'NONE',  ( -0.4300838274069465061, 0.2399999999999999356, 0.2999999999999999889 ) ) ;
#559 = SURFACE_SIDE_STYLE ('',( #249 ) ) ;
#560 = DIRECTION ( 'NONE',  ( 1.000000000000000000, 0.000000000000000000, 0.000000000000000000 ) ) ;
#561 = EDGE_CURVE ( 'NONE', #20, #679, #209, .T. ) ;
#562 = MECHANICAL_DESIGN_GEOMETRIC_PRESENTATION_REPRESENTATION (  '', ( #421 ), #167 ) ;
#563 =( NAMED_UNIT ( * ) PLANE_ANGLE_UNIT ( ) SI_UNIT ( $, .RADIAN. ) );
#564 = DIRECTION ( 'NONE',  ( 0.000000000000000000, 1.000000000000000000, 0.000000000000000000 ) ) ;
#565 = CARTESIAN_POINT ( 'NONE',  ( -0.5000000000000000000, 0.000000000000000000, 0.2999999999999999889 ) ) ;
#566 =( LENGTH_UNIT ( ) NAMED_UNIT ( * ) SI_UNIT ( .MILLI., .METRE. ) );
#567 = ADVANCED_FACE ( 'NONE', ( #483 ), #653, .F. ) ;
#568 = EDGE_CURVE ( 'NONE', #69, #85, #211, .T. ) ;
#569 = EDGE_CURVE ( 'NONE', #639, #100, #504, .T. ) ;
#570 = ADVANCED_FACE ( 'NONE', ( #756 ), #226, .F. ) ;
#571 =( NAMED_UNIT ( * ) SI_UNIT ( $, .STERADIAN. ) SOLID_ANGLE_UNIT ( ) );
#572 = AXIS2_PLACEMENT_3D ( 'NONE', #51, #487, #747 ) ;
#573 = EDGE_CURVE ( 'NONE', #683, #372, #479, .T. ) ;
#574 = CARTESIAN_POINT ( 'NONE',  ( -0.3602533450326459996, 0.2399999999999999356, 0.2999999999999999889 ) ) ;
#575 = PRODUCT_DEFINITION_SHAPE ( 'NONE', 'NONE',  #866 ) ;
#576 = SURFACE_SIDE_STYLE ('',( #751 ) ) ;
#577 = CARTESIAN_POINT ( 'NONE',  ( -0.3602533450326459996, 0.2399999999999999911, 0.2999999999999999889 ) ) ;
#578 = DIRECTION ( 'NONE',  ( 0.000000000000000000, 0.000000000000000000, 1.000000000000000000 ) ) ;
#579 = CARTESIAN_POINT ( 'NONE',  ( -0.3602533450326459996, 0.2599999999999999534, 0.2999999999999999889 ) ) ;
#580 = AXIS2_PLACEMENT_3D ( 'NONE', #28, #170, #560 ) ;
#581 = DIRECTION ( 'NONE',  ( 0.000000000000000000, 0.000000000000000000, 1.000000000000000000 ) ) ;
#582 = DIRECTION ( 'NONE',  ( -1.000000000000000000, 0.000000000000000000, 1.084202172485503818E-16 ) ) ;
#583 = CARTESIAN_POINT ( 'NONE',  ( 0.4500000000000000111, -0.05000000000000000278, 0.2500000000000000000 ) ) ;
#584 = DIRECTION ( 'NONE',  ( 0.000000000000000000, 0.000000000000000000, -1.000000000000000000 ) ) ;
#585 = CARTESIAN_POINT ( 'NONE',  ( -0.3602533450326459996, 0.2399999999999999356, 0.2999999999999999889 ) ) ;
#586 = ORIENTED_EDGE ( 'NONE', *, *, #591, .T. ) ;
#587 = ORIENTED_EDGE ( 'NONE', *, *, #568, .F. ) ;
#588 = ADVANCED_FACE ( 'NONE', ( #764 ), #469, .T. ) ;
#589 = VERTEX_POINT ( 'NONE', #864 ) ;
#590 = ORIENTED_EDGE ( 'NONE', *, *, #629, .F. ) ;
#591 = EDGE_CURVE ( 'NONE', #385, #118, #817, .T. ) ;
#592 = DIRECTION ( 'NONE',  ( 1.000000000000000000, 0.000000000000000000, 0.000000000000000000 ) ) ;
#593 = CARTESIAN_POINT ( 'NONE',  ( -0.4300838274069465061, 0.2599999999999999534, -0.2999999999999999889 ) ) ;
#594 = STYLED_ITEM ( 'NONE', ( #245 ), #850 ) ;
#595 = EDGE_CURVE ( 'NONE', #679, #372, #227, .T. ) ;
#596 = VERTEX_POINT ( 'NONE', #54 ) ;
#597 = ORIENTED_EDGE ( 'NONE', *, *, #71, .T. ) ;
#598 = CARTESIAN_POINT ( 'NONE',  ( -0.4300838274069465061, -0.3640499120673949540, -0.2999999999999999889 ) ) ;
#599 = DIRECTION ( 'NONE',  ( -0.000000000000000000, 1.000000000000000000, 0.000000000000000000 ) ) ;
#600 = VERTEX_POINT ( 'NONE', #36 ) ;
#601 = ORIENTED_EDGE ( 'NONE', *, *, #71, .F. ) ;
#602 = CARTESIAN_POINT ( 'NONE',  ( -0.2000000000000000111, -0.05000000000000000278, -0.2500000000000000000 ) ) ;
#603 = PRODUCT_DEFINITION_FORMATION_WITH_SPECIFIED_SOURCE ( 'ANY', '', #792, .NOT_KNOWN. ) ;
#604 =( NAMED_UNIT ( * ) PLANE_ANGLE_UNIT ( ) SI_UNIT ( $, .RADIAN. ) );
#605 = AXIS2_PLACEMENT_3D ( 'NONE', #183, #264, #449 ) ;
#606 = EDGE_LOOP ( 'NONE', ( #717, #716, #141, #21 ) ) ;
#607 = CARTESIAN_POINT ( 'NONE',  ( -0.2000000000000000111, -0.05000000000000000278, -0.2500000000000000000 ) ) ;
#608 = ORIENTED_EDGE ( 'NONE', *, *, #455, .T. ) ;
#609 = ORIENTED_EDGE ( 'NONE', *, *, #9, .F. ) ;
#610 = ORIENTED_EDGE ( 'NONE', *, *, #855, .F. ) ;
#611 = CARTESIAN_POINT ( 'NONE',  ( -0.2000000000000000111, -0.05000000000000000278, -0.2500000000000000000 ) ) ;
#612 = UNCERTAINTY_MEASURE_WITH_UNIT (LENGTH_MEASURE( 1.000000000000000082E-05 ), #109, 'distance_accuracy_value', 'NONE');
#613 = ADVANCED_FACE ( 'NONE', ( #253 ), #858, .T. ) ;
#614 = CARTESIAN_POINT ( 'NONE',  ( 0.5000000000000000000, 0.000000000000000000, -0.2999999999999999889 ) ) ;
#615 = EDGE_CURVE ( 'NONE', #386, #639, #518, .T. ) ;
#616 = CARTESIAN_POINT ( 'NONE',  ( 0.4500000000000000111, -0.05000000000000000278, 0.2500000000000000000 ) ) ;
#617 =( REPRESENTATION_RELATIONSHIP ('NONE','NONE', #846, #80 ) REPRESENTATION_RELATIONSHIP_WITH_TRANSFORMATION ( #668 )SHAPE_REPRESENTATION_RELATIONSHIP( ) );
#618 = DIRECTION ( 'NONE',  ( 0.000000000000000000, 0.000000000000000000, 1.000000000000000000 ) ) ;
#619 = EDGE_CURVE ( 'NONE', #426, #85, #821, .T. ) ;
#620 = DIRECTION ( 'NONE',  ( 0.000000000000000000, -0.000000000000000000, 1.000000000000000000 ) ) ;
#621 = CARTESIAN_POINT ( 'NONE',  ( 0.000000000000000000, 0.000000000000000000, 0.000000000000000000 ) ) ;
#622 = PLANE ( 'NONE',  #188 ) ;
#623 = CARTESIAN_POINT ( 'NONE',  ( 0.000000000000000000, -0.05000000000000000278, 0.000000000000000000 ) ) ;
#624 = CARTESIAN_POINT ( 'NONE',  ( -0.2000000000000000111, 0.000000000000000000, -0.2500000000000000000 ) ) ;
#625 = CARTESIAN_POINT ( 'NONE',  ( 0.000000000000000000, 0.000000000000000000, 0.000000000000000000 ) ) ;
#626 = ORIENTED_EDGE ( 'NONE', *, *, #542, .T. ) ;
#627 = DIRECTION ( 'NONE',  ( 0.000000000000000000, 1.000000000000000000, 0.000000000000000000 ) ) ;
#628 = EDGE_CURVE ( 'NONE', #108, #131, #258, .T. ) ;
#629 = EDGE_CURVE ( 'NONE', #415, #360, #531, .T. ) ;
#630 = EDGE_LOOP ( 'NONE', ( #135, #92, #610, #383, #34, #704, #702, #434 ) ) ;
#631 = DIRECTION ( 'NONE',  ( 1.000000000000000000, 0.000000000000000000, -1.084202172485503818E-16 ) ) ;
#632 = ORIENTED_EDGE ( 'NONE', *, *, #550, .T. ) ;
#633 = SURFACE_STYLE_USAGE ( .BOTH. , #533 ) ;
#634 = VERTEX_POINT ( 'NONE', #388 ) ;
#635 = PLANE ( 'NONE',  #835 ) ;
#636 = ORIENTED_EDGE ( 'NONE', *, *, #202, .F. ) ;
#637 = DIRECTION ( 'NONE',  ( -1.000000000000000000, 0.000000000000000000, 0.000000000000000000 ) ) ;
#638 = CARTESIAN_POINT ( 'NONE',  ( -0.4500000000000000111, -0.05000000000000000278, -0.2500000000000000000 ) ) ;
#639 = VERTEX_POINT ( 'NONE', #585 ) ;
#640 = CARTESIAN_POINT ( 'NONE',  ( -0.3602533450326459996, 0.2590000000000000080, 0.2999999999999999889 ) ) ;
#641 = VERTEX_POINT ( 'NONE', #38 ) ;
#642 = FILL_AREA_STYLE_COLOUR ( '', #267 ) ;
#643 = ORIENTED_EDGE ( 'NONE', *, *, #749, .T. ) ;
#644 = CARTESIAN_POINT ( 'NONE',  ( -0.3602533450326459996, 0.2590000000000000080, -0.2999999999999999889 ) ) ;
#645 = AXIS2_PLACEMENT_3D ( 'NONE', #621, #578, #796 ) ;
#646 = AXIS2_PLACEMENT_3D ( 'NONE', #623, #798, #851 ) ;
#647 = ORIENTED_EDGE ( 'NONE', *, *, #90, .T. ) ;
#648 = CARTESIAN_POINT ( 'NONE',  ( 0.5000000000000000000, 0.000000000000000000, 0.2999999999999999889 ) ) ;
#649 = CARTESIAN_POINT ( 'NONE',  ( -0.4300838274069465061, 0.2599999999999999534, -0.2999999999999999889 ) ) ;
#650 = EDGE_LOOP ( 'NONE', ( #488, #680, #116, #110 ) ) ;
#651 = CARTESIAN_POINT ( 'NONE',  ( 0.4500000000000000111, 0.000000000000000000, -0.2500000000000000000 ) ) ;
#652 = CARTESIAN_POINT ( 'NONE',  ( -0.4500000000000000111, -0.05000000000000000278, 0.2500000000000000000 ) ) ;
#653 = PLANE ( 'NONE',  #178 ) ;
#654 = ORIENTED_EDGE ( 'NONE', *, *, #848, .F. ) ;
#655 = ORIENTED_EDGE ( 'NONE', *, *, #154, .F. ) ;
#656 = EDGE_LOOP ( 'NONE', ( #67, #122, #76, #431 ) ) ;
#657 = ORIENTED_EDGE ( 'NONE', *, *, #544, .F. ) ;
#658 = EDGE_LOOP ( 'NONE', ( #88, #319, #364, #416 ) ) ;
#659 = ORIENTED_EDGE ( 'NONE', *, *, #90, .F. ) ;
#660 = DIRECTION ( 'NONE',  ( 0.000000000000000000, -1.000000000000000000, 0.000000000000000000 ) ) ;
#661 = SHAPE_DEFINITION_REPRESENTATION ( #444, #846 ) ;
#662 = DIRECTION ( 'NONE',  ( -1.000000000000000000, 0.000000000000000000, 0.000000000000000000 ) ) ;
#663 = ORIENTED_EDGE ( 'NONE', *, *, #569, .F. ) ;
#664 = ORIENTED_EDGE ( 'NONE', *, *, #455, .F. ) ;
#665 = ORIENTED_EDGE ( 'NONE', *, *, #202, .T. ) ;
#666 = ORIENTED_EDGE ( 'NONE', *, *, #343, .T. ) ;
#667 = ORIENTED_EDGE ( 'NONE', *, *, #746, .F. ) ;
#668 = ITEM_DEFINED_TRANSFORMATION ( 'NONE', 'NONE', #39,  #720 ) ;
#669 = VERTEX_POINT ( 'NONE', #3 ) ;
#670 = CARTESIAN_POINT ( 'NONE',  ( 0.05000000000000000278, 0.000000000000000000, 0.2500000000000000000 ) ) ;
#671 = EDGE_LOOP ( 'NONE', ( #663, #708, #697, #380 ) ) ;
#672 = CARTESIAN_POINT ( 'NONE',  ( -0.3602533450326459996, -0.3640499120673949540, -0.2999999999999999889 ) ) ;
#673 = ORIENTED_EDGE ( 'NONE', *, *, #472, .F. ) ;
#674 = VERTEX_POINT ( 'NONE', #624 ) ;
#675 = EDGE_CURVE ( 'NONE', #308, #669, #229, .T. ) ;
#676 = ORIENTED_EDGE ( 'NONE', *, *, #74, .T. ) ;
#677 = ORIENTED_EDGE ( 'NONE', *, *, #855, .T. ) ;
#678 = SHAPE_DEFINITION_REPRESENTATION ( #238, #80 ) ;
#679 = VERTEX_POINT ( 'NONE', #212 ) ;
#680 = ORIENTED_EDGE ( 'NONE', *, *, #301, .F. ) ;
#681 = PRODUCT ( '152AC', '152AC', '', ( #861 ) ) ;
#682 = EDGE_CURVE ( 'NONE', #683, #20, #266, .T. ) ;
#683 = VERTEX_POINT ( 'NONE', #492 ) ;
#684 = LINE ( 'NONE', #31, #113 ) ;
#685 = DIRECTION ( 'NONE',  ( 0.000000000000000000, 1.000000000000000000, 0.000000000000000000 ) ) ;
#686 =( NAMED_UNIT ( * ) SI_UNIT ( $, .STERADIAN. ) SOLID_ANGLE_UNIT ( ) );
#687 = DIRECTION ( 'NONE',  ( 0.000000000000000000, 0.000000000000000000, 1.000000000000000000 ) ) ;
#688 = EDGE_LOOP ( 'NONE', ( #705, #133, #128, #144 ) ) ;
#689 = ORIENTED_EDGE ( 'NONE', *, *, #303, .T. ) ;
#690 = ADVANCED_FACE ( 'NONE', ( #535 ), #324, .T. ) ;
#691 = EDGE_LOOP ( 'NONE', ( #104, #676, #366, #665 ) ) ;
#692 = VERTEX_POINT ( 'NONE', #370 ) ;
#693 = PLANE ( 'NONE',  #140 ) ;
#694 = CARTESIAN_POINT ( 'NONE',  ( -0.3602533450326459996, 0.2599999999999999534, -0.2999999999999999889 ) ) ;
#695 = EDGE_CURVE ( 'NONE', #108, #64, #826, .T. ) ;
#696 = ORIENTED_EDGE ( 'NONE', *, *, #406, .F. ) ;
#697 = ORIENTED_EDGE ( 'NONE', *, *, #507, .F. ) ;
#698 = VERTEX_POINT ( 'NONE', #694 ) ;
#699 = MANIFOLD_SOLID_BREP ( 'Cut-Extrude1', #714 ) ;
#700 = EDGE_LOOP ( 'NONE', ( #61, #65, #22, #398 ) ) ;
#701 = DIRECTION ( 'NONE',  ( 0.000000000000000000, 0.000000000000000000, 1.000000000000000000 ) ) ;
#702 = ORIENTED_EDGE ( 'NONE', *, *, #682, .F. ) ;
#703 = PRODUCT_DEFINITION_CONTEXT ( 'detailed design', #191, 'design' ) ;
#704 = ORIENTED_EDGE ( 'NONE', *, *, #198, .F. ) ;
#705 = ORIENTED_EDGE ( 'NONE', *, *, #573, .T. ) ;
#706 =( GEOMETRIC_REPRESENTATION_CONTEXT ( 3 ) GLOBAL_UNCERTAINTY_ASSIGNED_CONTEXT ( ( #552 ) ) GLOBAL_UNIT_ASSIGNED_CONTEXT ( ( #382, #132, #732 ) ) REPRESENTATION_CONTEXT ( 'NONE', 'WORKASPACE' ) );
#707 = EDGE_CURVE ( 'NONE', #634, #410, #244, .T. ) ;
#708 = ORIENTED_EDGE ( 'NONE', *, *, #848, .T. ) ;
#709 = CARTESIAN_POINT ( 'NONE',  ( 0.5000000000000000000, 0.2599999999999999534, -0.2999999999999999889 ) ) ;
#710 = ADVANCED_FACE ( 'NONE', ( #236 ), #435, .F. ) ;
#711 = VERTEX_POINT ( 'NONE', #593 ) ;
#712 = ORIENTED_EDGE ( 'NONE', *, *, #619, .F. ) ;
#713 = ORIENTED_EDGE ( 'NONE', *, *, #168, .F. ) ;
#714 = CLOSED_SHELL ( 'NONE', ( #251, #208, #710, #497, #102, #422, #347, #446, #292, #849 ) ) ;
#715 = APPLICATION_PROTOCOL_DEFINITION ( 'draft international standard', 'automotive_design', 1998, #273 ) ;
#716 = ORIENTED_EDGE ( 'NONE', *, *, #154, .T. ) ;
#717 = ORIENTED_EDGE ( 'NONE', *, *, #298, .T. ) ;
#718 = EDGE_CURVE ( 'NONE', #379, #136, #231, .T. ) ;
#719 = VECTOR ( 'NONE', #68, 1000.000000000000000 ) ;
#720 = AXIS2_PLACEMENT_3D ( 'NONE', #625, #309, #302 ) ;
#721 = LINE ( 'NONE', #759, #438 ) ;
#722 = DIRECTION ( 'NONE',  ( 1.000000000000000000, 0.000000000000000000, 0.000000000000000000 ) ) ;
#723 = CARTESIAN_POINT ( 'NONE',  ( -0.4300838274069465061, 0.2590000000000000080, 0.2999999999999999889 ) ) ;
#724 = VECTOR ( 'NONE', #768, 1000.000000000000000 ) ;
#725 = FACE_OUTER_BOUND ( 'NONE', #143, .T. ) ;
#726 = PLANE ( 'NONE',  #580 ) ;
#727 = LINE ( 'NONE', #96, #459 ) ;
#728 = DIRECTION ( 'NONE',  ( 0.000000000000000000, 0.000000000000000000, 1.000000000000000000 ) ) ;
#729 = DIRECTION ( 'NONE',  ( -0.000000000000000000, 1.000000000000000000, 0.000000000000000000 ) ) ;
#730 = VECTOR ( 'NONE', #521, 1000.000000000000000 ) ;
#731 = DIRECTION ( 'NONE',  ( 0.000000000000000000, 0.000000000000000000, -1.000000000000000000 ) ) ;
#732 =( NAMED_UNIT ( * ) SI_UNIT ( $, .STERADIAN. ) SOLID_ANGLE_UNIT ( ) );
#733 = ORIENTED_EDGE ( 'NONE', *, *, #695, .T. ) ;
#734 = SURFACE_STYLE_USAGE ( .BOTH. , #576 ) ;
#735 = VECTOR ( 'NONE', #33, 1000.000000000000000 ) ;
#736 = AXIS2_PLACEMENT_3D ( 'NONE', #210, #280, #387 ) ;
#737 = VECTOR ( 'NONE', #275, 1000.000000000000000 ) ;
#738 = SURFACE_STYLE_FILL_AREA ( #376 ) ;
#739 = CARTESIAN_POINT ( 'NONE',  ( -0.4300838274069465061, 0.2399999999999999356, 0.2999999999999999889 ) ) ;
#740 = DIRECTION ( 'NONE',  ( 0.000000000000000000, 1.000000000000000000, 0.000000000000000000 ) ) ;
#741 = APPLICATION_PROTOCOL_DEFINITION ( 'draft international standard', 'automotive_design', 1998, #315 ) ;
#742 = DIRECTION ( 'NONE',  ( 0.000000000000000000, 1.000000000000000000, 0.000000000000000000 ) ) ;
#743 = CARTESIAN_POINT ( 'NONE',  ( -0.4300838274069465061, 0.2399999999999999356, -0.2999999999999999889 ) ) ;
#744 = LINE ( 'NONE', #1, #172 ) ;
#745 = LINE ( 'NONE', #268, #156 ) ;
#746 = EDGE_CURVE ( 'NONE', #386, #698, #232, .T. ) ;
#747 = DIRECTION ( 'NONE',  ( 0.000000000000000000, -1.000000000000000000, 0.000000000000000000 ) ) ;
#748 = LINE ( 'NONE', #602, #724 ) ;
#749 = EDGE_CURVE ( 'NONE', #377, #386, #824, .T. ) ;
#750 = LINE ( 'NONE', #723, #175 ) ;
#751 = SURFACE_STYLE_FILL_AREA ( #164 ) ;
#752 = LINE ( 'NONE', #555, #719 ) ;
#753 = LINE ( 'NONE', #538, #754 ) ;
#754 = VECTOR ( 'NONE', #41, 1000.000000000000000 ) ;
#755 = FILL_AREA_STYLE_COLOUR ( '', #791 ) ;
#756 = FACE_OUTER_BOUND ( 'NONE', #700, .T. ) ;
#757 = FACE_OUTER_BOUND ( 'NONE', #688, .T. ) ;
#758 = LINE ( 'NONE', #391, #485 ) ;
#759 = CARTESIAN_POINT ( 'NONE',  ( -0.2000000000000000111, 0.000000000000000000, 0.2500000000000000000 ) ) ;
#760 = VECTOR ( 'NONE', #637, 1000.000000000000000 ) ;
#761 = DIRECTION ( 'NONE',  ( 1.000000000000000000, 0.000000000000000000, 0.000000000000000000 ) ) ;
#762 = ORIENTED_EDGE ( 'NONE', *, *, #472, .T. ) ;
#763 = LINE ( 'NONE', #12, #195 ) ;
#764 = FACE_OUTER_BOUND ( 'NONE', #671, .T. ) ;
#765 = FACE_OUTER_BOUND ( 'NONE', #35, .T. ) ;
#766 = ORIENTED_EDGE ( 'NONE', *, *, #505, .F. ) ;
#767 = ADVANCED_FACE ( 'NONE', ( #527 ), #70, .F. ) ;
#768 = DIRECTION ( 'NONE',  ( 1.000000000000000000, 0.000000000000000000, 0.000000000000000000 ) ) ;
#769 = VECTOR ( 'NONE', #346, 1000.000000000000000 ) ;
#770 = DIRECTION ( 'NONE',  ( 0.000000000000000000, 0.000000000000000000, 1.000000000000000000 ) ) ;
#771 = CARTESIAN_POINT ( 'NONE',  ( 0.4500000000000000111, 0.000000000000000000, -0.2500000000000000000 ) ) ;
#772 = FACE_OUTER_BOUND ( 'NONE', #378, .T. ) ;
#773 = VECTOR ( 'NONE', #313, 1000.000000000000000 ) ;
#774 = VECTOR ( 'NONE', #123, 1000.000000000000000 ) ;
#775 = DIRECTION ( 'NONE',  ( 0.000000000000000000, 1.000000000000000000, 0.000000000000000000 ) ) ;
#776 = CARTESIAN_POINT ( 'NONE',  ( -0.3602533450326459996, 0.2399999999999999356, -0.2999999999999999889 ) ) ;
#777 = LINE ( 'NONE', #644, #204 ) ;
#778 = LINE ( 'NONE', #214, #774 ) ;
#779 = CARTESIAN_POINT ( 'NONE',  ( -0.4500000000000000111, -0.05000000000000000278, -0.2500000000000000000 ) ) ;
#780 = EDGE_CURVE ( 'NONE', #410, #385, #224, .T. ) ;
#781 = LINE ( 'NONE', #786, #493 ) ;
#782 = STYLED_ITEM ( 'NONE', ( #831 ), #43 ) ;
#783 = VECTOR ( 'NONE', #627, 1000.000000000000000 ) ;
#784 = PLANE ( 'NONE',  #471 ) ;
#785 = AXIS2_PLACEMENT_3D ( 'NONE', #440, #307, #462 ) ;
#786 = CARTESIAN_POINT ( 'NONE',  ( -0.4300838274069465061, 0.2599999999999999534, 0.2999999999999999889 ) ) ;
#787 = ADVANCED_FACE ( 'NONE', ( #526 ), #784, .F. ) ;
#788 = LINE ( 'NONE', #114, #502 ) ;
#789 = VECTOR ( 'NONE', #400, 1000.000000000000000 ) ;
#790 = LINE ( 'NONE', #248, #494 ) ;
#791 = COLOUR_RGB ( '',0.2509803921568627416, 0.2509803921568627416, 0.2509803921568627416 ) ;
#792 = PRODUCT ( '152AC_152AC', '152AC_152AC', '', ( #463 ) ) ;
#793 = FACE_OUTER_BOUND ( 'NONE', #354, .T. ) ;
#794 = STYLED_ITEM ( 'NONE', ( #464 ), #295 ) ;
#795 = DIRECTION ( 'NONE',  ( 0.000000000000000000, -1.000000000000000000, 0.000000000000000000 ) ) ;
#796 = DIRECTION ( 'NONE',  ( 1.000000000000000000, 0.000000000000000000, 0.000000000000000000 ) ) ;
#797 = VECTOR ( 'NONE', #631, 1000.000000000000000 ) ;
#798 = DIRECTION ( 'NONE',  ( 0.000000000000000000, -1.000000000000000000, 0.000000000000000000 ) ) ;
#799 = CARTESIAN_POINT ( 'NONE',  ( 0.4500000000000000111, -0.05000000000000000278, -0.2500000000000000000 ) ) ;
#800 = SURFACE_STYLE_FILL_AREA ( #293 ) ;
#801 = VECTOR ( 'NONE', #7, 1000.000000000000000 ) ;
#802 = SURFACE_SIDE_STYLE ('',( #839 ) ) ;
#803 = DIRECTION ( 'NONE',  ( -0.000000000000000000, 1.000000000000000000, 0.000000000000000000 ) ) ;
#804 = VECTOR ( 'NONE', #823, 1000.000000000000000 ) ;
#805 = PLANE ( 'NONE',  #736 ) ;
#806 = CARTESIAN_POINT ( 'NONE',  ( -0.4500000000000000111, 0.000000000000000000, -0.2500000000000000000 ) ) ;
#807 = VECTOR ( 'NONE', #553, 1000.000000000000000 ) ;
#808 = VECTOR ( 'NONE', #847, 1000.000000000000000 ) ;
#809 = CARTESIAN_POINT ( 'NONE',  ( 0.000000000000000000, 0.000000000000000000, 0.000000000000000000 ) ) ;
#810 = LINE ( 'NONE', #834, #534 ) ;
#811 = VECTOR ( 'NONE', #60, 1000.000000000000000 ) ;
#812 = CARTESIAN_POINT ( 'NONE',  ( 0.4500000000000000111, -0.05000000000000000278, -0.2500000000000000000 ) ) ;
#813 = CARTESIAN_POINT ( 'NONE',  ( -0.4300838274069465061, 0.2599999999999999534, 0.2999999999999999889 ) ) ;
#814 = CARTESIAN_POINT ( 'NONE',  ( -0.3602533450326459996, 0.2599999999999999534, -0.2999999999999999889 ) ) ;
#815 = DIRECTION ( 'NONE',  ( 0.000000000000000000, 0.000000000000000000, 1.000000000000000000 ) ) ;
#816 = LINE ( 'NONE', #255, #811 ) ;
#817 = LINE ( 'NONE', #130, #510 ) ;
#818 = DIRECTION ( 'NONE',  ( 1.000000000000000000, 0.000000000000000000, -1.084202172485503818E-16 ) ) ;
#819 = COLOUR_RGB ( '',0.7921568627450980005, 0.8196078431372548767, 0.9333333333333333481 ) ;
#820 = EDGE_CURVE ( 'NONE', #64, #425, #240, .T. ) ;
#821 = LINE ( 'NONE', #638, #514 ) ;
#822 = DIRECTION ( 'NONE',  ( 0.000000000000000000, 0.000000000000000000, -1.000000000000000000 ) ) ;
#823 = DIRECTION ( 'NONE',  ( 0.000000000000000000, -1.000000000000000000, 0.000000000000000000 ) ) ;
#824 = LINE ( 'NONE', #776, #524 ) ;
#825 = CARTESIAN_POINT ( 'NONE',  ( 0.000000000000000000, 0.2599999999999999534, 0.000000000000000000 ) ) ;
#826 = LINE ( 'NONE', #44, #257 ) ;
#827 = DIRECTION ( 'NONE',  ( 0.000000000000000000, 0.000000000000000000, -1.000000000000000000 ) ) ;
#828 = DIRECTION ( 'NONE',  ( 0.000000000000000000, 0.000000000000000000, -1.000000000000000000 ) ) ;
#829 = PLANE ( 'NONE',  #445 ) ;
#830 = AXIS2_PLACEMENT_3D ( 'NONE', #23, #262, #352 ) ;
#831 = PRESENTATION_STYLE_ASSIGNMENT (( #363 ) ) ;
#832 = CARTESIAN_POINT ( 'NONE',  ( 0.5000000000000000000, 0.000000000000000000, 0.2999999999999999889 ) ) ;
#833 = DIRECTION ( 'NONE',  ( 0.000000000000000000, -1.000000000000000000, 0.000000000000000000 ) ) ;
#834 = CARTESIAN_POINT ( 'NONE',  ( 0.05000000000000000278, -0.05000000000000000278, -0.2500000000000000000 ) ) ;
#835 = AXIS2_PLACEMENT_3D ( 'NONE', #812, #137, #218 ) ;
#836 = LINE ( 'NONE', #349, #540 ) ;
#837 = VECTOR ( 'NONE', #84, 1000.000000000000000 ) ;
#838 = DIRECTION ( 'NONE',  ( -1.000000000000000000, 0.000000000000000000, 1.084202172485503818E-16 ) ) ;
#839 = SURFACE_STYLE_FILL_AREA ( #184 ) ;
#840 = PLANE ( 'NONE',  #830 ) ;
#841 = DIRECTION ( 'NONE',  ( 0.000000000000000000, 0.000000000000000000, 1.000000000000000000 ) ) ;
#842 = CARTESIAN_POINT ( 'NONE',  ( -0.3602533450326459996, 0.2399999999999999911, 0.2999999999999999889 ) ) ;
#843 = EDGE_CURVE ( 'NONE', #596, #379, #810, .T. ) ;
#844 = PLANE ( 'NONE',  #89 ) ;
#845 =( GEOMETRIC_REPRESENTATION_CONTEXT ( 3 ) GLOBAL_UNCERTAINTY_ASSIGNED_CONTEXT ( ( #277 ) ) GLOBAL_UNIT_ASSIGNED_CONTEXT ( ( #509, #604, #686 ) ) REPRESENTATION_CONTEXT ( 'NONE', 'WORKASPACE' ) );
#846 = SHAPE_REPRESENTATION ( '152AC', ( #645, #39 ), #153 ) ;
#847 = DIRECTION ( 'NONE',  ( 0.000000000000000000, 1.000000000000000000, 0.000000000000000000 ) ) ;
#848 = EDGE_CURVE ( 'NONE', #639, #692, #816, .T. ) ;
#849 = ADVANCED_FACE ( 'NONE', ( #793 ), #342, .T. ) ;
#850 = MANIFOLD_SOLID_BREP ( 'NONE', #411 ) ;
#851 = DIRECTION ( 'NONE',  ( 0.000000000000000000, 0.000000000000000000, -1.000000000000000000 ) ) ;
#852 = DIRECTION ( 'NONE',  ( -1.000000000000000000, 0.000000000000000000, 0.000000000000000000 ) ) ;
#853 = EDGE_CURVE ( 'NONE', #125, #91, #274, .T. ) ;
#854 =( GEOMETRIC_REPRESENTATION_CONTEXT ( 3 ) GLOBAL_UNCERTAINTY_ASSIGNED_CONTEXT ( ( #52 ) ) GLOBAL_UNIT_ASSIGNED_CONTEXT ( ( #566, #563, #260 ) ) REPRESENTATION_CONTEXT ( 'NONE', 'WORKASPACE' ) );
#855 = EDGE_CURVE ( 'NONE', #64, #669, #836, .T. ) ;
#856 = UNCERTAINTY_MEASURE_WITH_UNIT (LENGTH_MEASURE( 1.000000000000000082E-05 ), #480, 'distance_accuracy_value', 'NONE');
#857 = PLANE ( 'NONE',  #408 ) ;
#858 = PLANE ( 'NONE',  #200 ) ;
#859 = DIRECTION ( 'NONE',  ( 0.000000000000000000, 0.000000000000000000, -1.000000000000000000 ) ) ;
#860 = DIRECTION ( 'NONE',  ( 0.000000000000000000, -1.000000000000000000, 0.000000000000000000 ) ) ;
#861 = PRODUCT_CONTEXT ( 'NONE', #273, 'mechanical' ) ;
#862 = DIRECTION ( 'NONE',  ( 0.000000000000000000, -1.000000000000000000, 0.000000000000000000 ) ) ;
#863 = CARTESIAN_POINT ( 'NONE',  ( 0.4500000000000000111, 0.000000000000000000, 0.2500000000000000000 ) ) ;
#864 = CARTESIAN_POINT ( 'NONE',  ( -0.5000000000000000000, 0.000000000000000000, 0.2999999999999999889 ) ) ;
#865 = DIRECTION ( 'NONE',  ( 0.000000000000000000, 0.000000000000000000, 1.000000000000000000 ) ) ;
#866 = NEXT_ASSEMBLY_USAGE_OCCURRENCE ( 'NAUO1', ' ', ' ', #389, #291, $ ) ;
ENDSEC;
END-ISO-10303-21;
